<?xml version="1.0" encoding="utf-8"?>
<!-- Generator: Adobe Illustrator 13.0.0, SVG Export Plug-In . SVG Version: 6.00 Build 14948)  -->
<!DOCTYPE svg PUBLIC "-//W3C//DTD SVG 1.1//EN" "http://www.w3.org/Graphics/SVG/1.1/DTD/svg11.dtd">
<svg version="1.1"
	 id="Palette" sodipodi:version="0.32" inkscape:version="0.45.1" sodipodi:docbase="F:\" sodipodi:docname="palette.svg" xmlns:dc="http://purl.org/dc/elements/1.1/" xmlns:cc="http://web.resource.org/cc/" xmlns:rdf="http://www.w3.org/1999/02/22-rdf-syntax-ns#" xmlns:svg="http://www.w3.org/2000/svg" xmlns:sodipodi="http://sodipodi.sourceforge.net/DTD/sodipodi-0.dtd" xmlns:inkscape="http://www.inkscape.org/namespaces/inkscape" inkscape:output_extension="org.inkscape.output.svg.inkscape"
	 xmlns="http://www.w3.org/2000/svg" xmlns:xlink="http://www.w3.org/1999/xlink" x="0px" y="0px" width="55px" height="55px"
	 viewBox="0 0 55 55" style="enable-background:new 0 0 55 55;" xml:space="preserve">
<path id="_x3C_Path_x3E__5_" style="fill:#808080;stroke:#FFFFFF;stroke-width:3.5;" d="M49.139,36.188
	c-1.117-8.423-8.688-17.67-21.995-22.375c-7.425-2.623-16.781-1.292-20.503,6.574c-4.022,8.493,3.379,18.695,13.695,18.61
	c6.866-0.056,13.744,2.591,17.855,5.165C42.896,47.115,50.104,43.47,49.139,36.188z"/>
<path id="_x3C_Path_x3E__4_" style="fill:#404040;" d="M42.398,36.273c-0.58,1.677-2.408,2.568-4.101,1.998
	c-1.677-0.576-2.569-2.408-1.993-4.09c0.572-1.686,2.401-2.578,4.088-2.002C42.073,32.755,42.973,34.59,42.398,36.273z"/>
<path id="_x3C_Path_x3E__3_" style="fill:#FFFFFF;" d="M24.065,33.523c-0.58,1.677-2.408,2.568-4.097,1.998
	c-1.677-0.576-2.573-2.408-1.997-4.09c0.576-1.686,2.405-2.578,4.088-2.002C23.74,30.005,24.64,31.84,24.065,33.523z"/>
<path id="_x3C_Path_x3E__2_" style="fill:#E5E5E5;" d="M16.899,30.189c-0.58,1.677-2.408,2.568-4.097,1.998
	c-1.677-0.576-2.573-2.408-1.997-4.09c0.576-1.686,2.405-2.581,4.088-2.006C16.574,26.671,17.473,28.506,16.899,30.189z"/>
<path id="_x3C_Path_x3E__1_" style="fill:#C0C0C0;" d="M16.982,22.19c-0.58,1.677-2.408,2.572-4.097,1.998
	c-1.677-0.576-2.573-2.407-1.997-4.088c0.576-1.681,2.405-2.578,4.088-2.002C16.657,18.671,17.556,20.506,16.982,22.19z"/>
<path id="_x3C_Path_x3E_" style="fill:#A6A6A6;" d="M24.898,20.356c-0.58,1.677-2.408,2.572-4.097,1.998
	c-1.677-0.576-2.573-2.408-1.997-4.09c0.576-1.682,2.405-2.578,4.088-2.002C24.573,16.838,25.472,18.673,24.898,20.356z"/>
</svg>
